#!OML:ASF F:\VICON\USERDATA\INSTALL\Justin_Nancy\Justin_Nancy.ASF
:FULLY-SPECIFIED
:DEGREES
195
root 0.61517 17.091 -14.4773 4.33164 -1.74517 7.6983
lowerback 6.09288 -1.92122 -7.73956
upperback 0.75412 -3.0557 0.544062
thorax -2.19995 -1.45939 5.14189
lowerneck -15.7743 -4.51473 -9.88073
upperneck 20.6881 -5.54005 7.61678
head 9.64195 -2.53253 3.57373
rclavicle -3.598e-014 2.46493e-014
rhumerus -31.2612 -11.976 -79.6316
rradius 32.6449
rwrist 4.38447
rhand -13.9096 12.9329
rfingers 7.12502
rthumb 12.2163 -16.6903
lclavicle -3.598e-014 2.46493e-014
lhumerus -21.2904 1.23249 83.1442
lradius 30.5911
lwrist -9.49405
lhand -11.4331 26.4138
lfingers 7.12502
lthumb 14.6032 55.8797
rfemur -34.6196 1.79511 13.1221
rtibia 18.9384
rfoot -4.67973 -5.17736
rtoes -10.6006
lfemur 12.168 -1.43455 -31.2651
ltibia 17.5461
lfoot -12.9769 -1.53564
ltoes -14.5746
196
root 0.587338 17.0957 -14.2805 4.43098 -1.66327 7.4866
lowerback 6.13056 -1.98591 -7.58996
upperback 0.559106 -3.13913 0.688861
thorax -2.4122 -1.48725 5.22245
lowerneck -15.8277 -4.50726 -10.0014
upperneck 20.8245 -5.5235 7.70922
head 9.70473 -2.52408 3.63085
rclavicle 1.50082e-014 -8.74653e-015
rhumerus -31.7497 -12.2701 -79.2406
rradius 32.2554
rwrist 4.14574
rhand -13.585 13.2363
rfingers 7.12502
rthumb 12.5293 -16.368
lclavicle 1.50082e-014 -8.74653e-015
lhumerus -21.8178 1.28568 83.2772
lradius 30.6465
lwrist -9.46075
lhand -11.6578 25.5641
lfingers 7.12502
lthumb 14.3867 55.0455
rfemur -35.1202 1.92583 13.4113
rtibia 20.8364
rfoot -3.61604 -5.24249
rtoes -8.54841
lfemur 12.579 -1.81418 -31.0071
ltibia 17.7134
lfoot -11.9853 -1.68393
ltoes -17.8001
197
root 0.562168 17.1082 -14.0789 4.47278 -1.62316 7.26635
lowerback 6.25298 -2.04624 -7.48403
upperback 0.31615 -3.22663 0.867372
thorax -2.71717 -1.5113 5.36965
lowerneck -15.8256 -4.4503 -9.93159
upperneck 21.0482 -5.44449 7.57995
head 9.76928 -2.49743 3.58782
rclavicle -2.98177e-016 2.54444e-014
rhumerus -32.1932 -12.8896 -78.6139
rradius 31.609
rwrist 4.40495
rhand -13.014 13.905
rfingers 7.12502
rthumb 13.0797 -15.6649
lclavicle -2.98177e-016 2.54444e-014
lhumerus -22.4089 1.56141 83.4319
lradius 30.6166
lwrist -9.65475
lhand -11.4465 26.6218
lfingers 7.12502
lthumb 14.5903 56.0886
rfemur -35.4272 1.96978 13.7413
rtibia 22.5724
rfoot -2.57586 -5.15596
rtoes -6.50731
lfemur 12.906 -2.3086 -30.8156
ltibia 18.1723
lfoot -10.9314 -1.78775
ltoes -19.7633
198
root 0.54221 17.1209 -13.874 4.38879 -1.42797 6.95797
lowerback 6.24925 -2.12432 -7.13239
upperback 0.33499 -3.30111 0.988425
thorax -2.69667 -1.55368 5.30272
lowerneck -16.0206 -4.54104 -9.79746
upperneck 21.183 -5.56344 7.44589
head 9.85746 -2.5528 3.50079
rclavicle -9.44227e-015 2.70347e-014
rhumerus -32.3783 -13.5761 -78.1447
rradius 31.0511
rwrist 4.77467
rhand -12.8142 14.3662
rfingers 7.12502
rthumb 13.2723 -15.1913
lclavicle -9.44227e-015 2.70347e-014
lhumerus -22.5789 1.80365 83.5499
lradius 30.473
lwrist -9.77501
lhand -11.2221 27.4219
lfingers 7.12502
lthumb 14.8066 56.8729
rfemur -35.4327 1.91763 14.1403
rtibia 24.1247
rfoot -2.0987 -5.25337
rtoes -6.06175
lfemur 13.2511 -3.05361 -30.5886
ltibia 18.8213
lfoot -9.82138 -1.89355
ltoes -20.6189
199
root 0.524963 17.1319 -13.6683 4.20655 -1.25368 6.41728
lowerback 6.29478 -2.14915 -6.40036
upperback 0.471277 -3.27841 1.0859
thorax -2.61793 -1.55735 4.98889
lowerneck -16.353 -4.67619 -9.65596
upperneck 21.2949 -5.74998 7.38365
head 9.97176 -2.62747 3.42623
rclavicle -2.15681e-014 -1.59028e-015
rhumerus -32.4846 -14.5043 -77.7425
rradius 30.4363
rwrist 5.30338
rhand -12.8074 14.7524
rfingers 7.12502
rthumb 13.2789 -14.8045
lclavicle -2.15681e-014 -1.59028e-015
lhumerus -22.6782 1.88749 83.6478
lradius 30.3899
lwrist -9.80655
lhand -11.4942 26.1699
lfingers 7.12502
lthumb 14.5443 55.6401
rfemur -35.299 1.98813 14.7172
rtibia 25.5016
rfoot -2.32995 -5.28995
rtoes -5.61611
lfemur 13.6218 -3.55217 -30.0753
ltibia 19.5782
lfoot -8.64519 -2.10486
ltoes -22.2007
200
root 0.506329 17.1473 -13.4579 4.01251 -1.22521 5.91892
lowerback 6.43072 -2.17574 -5.82421
upperback 0.423528 -3.27772 1.25322
thorax -2.76586 -1.5564 4.84807
lowerneck -16.1474 -4.64365 -9.71114
upperneck 21.3288 -5.71703 7.40433
head 9.94426 -2.61924 3.45049
rclavicle -5.26779e-015 5.56597e-015
rhumerus -32.9127 -15.2633 -77.1399
rradius 29.7685
rwrist 5.87221
rhand -13.0669 14.6907
rfingers 7.12502
rthumb 13.0287 -14.8825
lclavicle -5.26779e-015 5.56597e-015
lhumerus -23.1122 2.09589 83.8023
lradius 30.2267
lwrist -9.93022
lhand -11.6649 25.7188
lfingers 7.12502
lthumb 14.3799 55.2007
rfemur -35.0901 1.99255 15.3011
rtibia 26.5962
rfoot -2.44994 -4.89775
rtoes -5.73916
lfemur 13.8856 -3.84866 -29.6085
ltibia 20.5986
lfoot -7.37412 -2.22299
ltoes -22.9954
201
root 0.487901 17.1624 -13.2466 3.8264 -1.24264 5.6559
lowerback 6.4809 -2.26138 -5.56981
upperback 0.38242 -3.37194 1.42545
thorax -2.82894 -1.60263 4.89565
lowerneck -15.8848 -4.47772 -9.86538
upperneck 21.261 -5.48474 7.48367
head 9.85489 -2.5214 3.53952
rclavicle 2.28602e-015 -6.36111e-015
rhumerus -33.1835 -15.5861 -76.6359
rradius 29.1681
rwrist 6.30974
rhand -13.9749 13.4038
rfingers 7.12502
rthumb 12.1533 -16.2232
lclavicle 2.28602e-015 -6.36111e-015
lhumerus -23.5158 2.6093 83.9363
lradius 29.8149
lwrist -10.3155
lhand -11.7596 25.8935
lfingers 7.12502
lthumb 14.2887 55.3819
rfemur -34.7573 1.70514 15.7519
rtibia 27.4584
rfoot -1.95074 -3.97384
rtoes -5.45709
lfemur 13.9336 -4.11552 -29.3985
ltibia 21.8176
lfoot -5.88051 -2.32826
ltoes -22.7129
202
root 0.466156 17.17 -13.035 3.70502 -1.41277 5.38244
lowerback 6.39129 -2.28014 -5.34794
upperback 0.492752 -3.36928 1.57314
thorax -2.66804 -1.61169 4.91591
lowerneck -16.0427 -4.41167 -9.83348
upperneck 21.006 -5.36603 7.46622
head 9.78103 -2.46114 3.53879
rclavicle -6.22196e-014 3.26007e-014
rhumerus -33.0532 -16.1929 -76.2598
rradius 28.4973
rwrist 6.90329
rhand -14.6879 12.4223
rfingers 7.12502
rthumb 11.4658 -17.2442
lclavicle -6.22196e-014 3.26007e-014
lhumerus -23.7762 3.07943 84.0498
lradius 29.6696
lwrist -10.6432
lhand -12.0254 25.6146
lfingers 7.12502
lthumb 14.0325 55.1209
rfemur -34.4519 1.42677 16.2957
rtibia 28.2475
rfoot -1.29198 -2.67897
rtoes -2.89958
lfemur 13.7382 -4.15465 -29.1518
ltibia 23.1705
lfoot -4.08454 -2.7233
ltoes -22.6841
203
root 0.439049 17.1801 -12.8217 3.54155 -1.46192 5.14065
lowerback 6.36316 -2.25834 -5.21473
upperback 0.654233 -3.32238 1.71235
thorax -2.48947 -1.5992 4.97576
lowerneck -16.3923 -4.4678 -9.70471
upperneck 20.8164 -5.40311 7.3403
head 9.77583 -2.47322 3.46043
rclavicle -2.0773e-014 -8.74653e-015
rhumerus -33.1564 -16.85 -75.8315
rradius 28.1329
rwrist 7.14961
rhand -14.6779 12.2008
rfingers 7.12502
rthumb 11.4754 -17.4651
lclavicle -2.0773e-014 -8.74653e-015
lhumerus -24.019 3.39017 84.2488
lradius 29.8021
lwrist -10.6944
lhand -12.0022 25.6603
lfingers 7.12502
lthumb 14.0549 55.1651
rfemur -34.0645 1.22844 16.7911
rtibia 29.0503
rfoot -0.931267 -1.66554
rtoes -0.635364
lfemur 13.4751 -4.3719 -28.9312
ltibia 24.6863
lfoot -2.12747 -3.25714
ltoes -22.173
204
root 0.408786 17.191 -12.6107 3.49649 -1.40546 4.83105
lowerback 6.28483 -2.26357 -5.05832
upperback 0.608865 -3.31043 1.89427
thorax -2.4922 -1.59332 5.07406
lowerneck -16.3797 -4.45356 -9.64891
upperneck 20.8065 -5.3828 7.2733
head 9.76437 -2.46699 3.43004
rclavicle 2.74323e-014 1.19271e-014
rhumerus -33.6763 -17.3136 -75.2203
rradius 27.7871
rwrist 7.39318
rhand -14.568 12.5522
rfingers 7.12502
rthumb 11.5814 -17.1078
lclavicle 2.74323e-014 1.19271e-014
lhumerus -24.6484 3.55864 84.4883
lradius 29.9881
lwrist -10.4517
lhand -11.8355 25.9588
lfingers 7.12502
lthumb 14.2155 55.4523
rfemur -33.7194 1.27242 17.2973
rtibia 29.8419
rfoot -1.17179 -1.47188
rtoes 0.624404
lfemur 12.9782 -4.6352 -28.5395
ltibia 26.3922
lfoot -0.0359281 -3.69664
ltoes -21.2079
205
root 0.379717 17.2046 -12.4004 3.43788 -1.30968 4.4637
lowerback 6.27383 -2.3271 -4.89821
upperback 0.449417 -3.37845 2.15333
thorax -2.63667 -1.61988 5.26439
lowerneck -15.9849 -4.37489 -9.83283
upperneck 20.8161 -5.27795 7.33281
head 9.69101 -2.43515 3.50084
rclavicle 9.54166e-015 -2.38542e-015
rhumerus -34.184 -17.8076 -74.4379
rradius 27.1949
rwrist 8.17256
rhand -14.6718 12.8171
rfingers 7.12502
rthumb 11.4813 -16.8485
lclavicle 9.54166e-015 -2.38542e-015
lhumerus -25.3192 3.77682 84.7719
lradius 29.819
lwrist -10.2298
lhand -12.0125 25.6254
lfingers 7.12502
lthumb 14.045 55.1309
rfemur -33.2495 1.41905 17.8322
rtibia 30.6014
rfoot -1.77122 -1.6819
rtoes 1.89023
lfemur 12.3462 -4.81232 -28.0267
ltibia 28.2071
lfoot 2.31905 -4.17974
ltoes -20.5246
206
root 0.352442 17.2254 -12.1894 3.38371 -1.03225 4.35085
lowerback 6.18981 -2.37082 -4.87757
upperback 0.446056 -3.42899 2.24986
thorax -2.58203 -1.64691 5.35264
lowerneck -15.9486 -4.38893 -9.78936
upperneck 20.8574 -5.31327 7.32511
head 9.70063 -2.44983 3.48695
rclavicle -2.48481e-014 1.03368e-014
rhumerus -34.4091 -18.4981 -73.8707
rradius 26.7142
rwrist 8.58925
rhand -14.6494 12.648
rfingers 7.12502
rthumb 11.5029 -17.0164
lclavicle -2.48481e-014 1.03368e-014
lhumerus -25.5272 3.58823 85.0772
lradius 29.552
lwrist -10.1545
lhand -11.6857 25.7201
lfingers 7.12502
lthumb 14.3599 55.2034
rfemur -32.6482 1.4331 18.055
rtibia 31.2575
rfoot -2.21698 -1.8282
rtoes 2.27313
lfemur 11.3358 -4.98442 -27.7501
ltibia 30.1703
lfoot 5.39908 -4.90624
ltoes -21.5317
207
root 0.327347 17.25 -11.98 3.38437 -0.827477 4.27661
lowerback 6.04735 -2.39887 -4.83067
upperback 0.477087 -3.45544 2.29873
thorax -2.46643 -1.66516 5.36972
lowerneck -16.1994 -4.40497 -9.46847
upperneck 20.9626 -5.3289 7.02379
head 9.76801 -2.45969 3.32284
rclavicle 2.24627e-014 3.18055e-014
rhumerus -34.5347 -19.163 -73.3981
rradius 26.2348
rwrist 8.90719
rhand -14.4751 12.6964
rfingers 7.12502
rthumb 11.671 -16.9586
lclavicle 2.24627e-014 3.18055e-014
lhumerus -25.6791 3.2712 85.3668
lradius 29.4154
lwrist -10.0585
lhand -11.3952 26.13
lfingers 7.12502
lthumb 14.6398 55.5932
rfemur -31.9699 1.40425 18.2396
rtibia 31.6742
rfoot -2.6029 -1.84056
rtoes 4.1692
lfemur 10.0397 -5.11313 -27.5246
ltibia 32.321
lfoot 8.65684 -5.76968
ltoes -21.6606
208
root 0.296224 17.272 -11.7766 3.3788 -0.817491 3.8805
lowerback 5.98427 -2.37825 -4.6147
upperback 0.371322 -3.4066 2.49199
thorax -2.54779 -1.63752 5.44704
lowerneck -15.9375 -4.39532 -9.44595
upperneck 21.0148 -5.32822 6.93561
head 9.73421 -2.47295 3.29136
rclavicle 1.59028e-015 -3.18055e-015
rhumerus -34.8656 -19.6944 -72.7919
rradius 25.6577
rwrist 9.50635
rhand -14.4244 12.6094
rfingers 7.12502
rthumb 11.7199 -17.0427
lclavicle 1.59028e-015 -3.18055e-015
lhumerus -26.237 3.13695 85.6279
lradius 29.4156
lwrist -10.102
lhand -11.4557 26.1725
lfingers 7.12502
lthumb 14.5815 55.64
rfemur -31.2406 1.59576 18.8314
rtibia 31.8671
rfoot -2.08723 -1.55017
rtoes -0.263972
lfemur 8.86015 -5.3078 -26.9319
ltibia 34.589
lfoot 11.0547 -6.15952
ltoes -17.5886
209
root 0.266178 17.295 -11.5807 3.36102 -0.858429 3.22678
lowerback 5.99129 -2.32145 -4.11683
upperback 0.248696 -3.2913 2.72575
thorax -2.70764 -1.57712 5.4072
lowerneck -15.5838 -4.35986 -9.48411
upperneck 21.0826 -5.31616 6.97543
head 9.69285 -2.47371 3.31843
rclavicle -4.02539e-014 1.27222e-014
rhumerus -35.2342 -19.9209 -72.3576
rradius 25.3026
rwrist 9.87621
rhand -14.4651 12.0913
rfingers 7.12502
rthumb 11.6806 -17.5631
lclavicle -4.02539e-014 1.27222e-014
lhumerus -26.7778 2.90171 85.8759
lradius 29.4382
lwrist -10.1645
lhand -11.4431 25.9982
lfingers 7.12502
lthumb 14.5936 55.4648
rfemur -30.4556 1.91047 19.6961
rtibia 31.8637
rfoot -2.90826 -2.2171
rtoes 6.13347
lfemur 7.74688 -5.30235 -26.0095
ltibia 36.9271
lfoot 13.5378 -6.89597
ltoes -12.0261
